<?xml version="1.0" encoding="utf-8"?>
<!-- Generator: Adobe Illustrator 15.0.0, SVG Export Plug-In . SVG Version: 6.00 Build 0)  -->
<!DOCTYPE svg PUBLIC "-//W3C//DTD SVG 1.1//EN" "http://www.w3.org/Graphics/SVG/1.1/DTD/svg11.dtd">
<svg version="1.1" id="Layer_1" xmlns="http://www.w3.org/2000/svg" xmlns:xlink="http://www.w3.org/1999/xlink" x="0px" y="0px"
	 width="141.73px" height="141.73px" viewBox="0 0 141.73 141.73" enable-background="new 0 0 141.73 141.73" xml:space="preserve">
<polyline fill="none" points="409.482,151.5 -268.483,151.5 -268.483,-10.5 409.482,-10.5 "/>
<polyline fill="none" points="409.482,151.5 -268.483,151.5 -268.483,-10.5 409.482,-10.5 "/>
<polyline fill="none" points="409.482,151.5 -268.483,151.5 -268.483,-10.5 409.482,-10.5 "/>
<polyline fill="none" points="409.482,151.5 -268.483,151.5 -268.483,-10.5 409.482,-10.5 "/>
<polyline fill="none" points="409.482,151.5 -268.483,151.5 -268.483,-10.5 409.482,-10.5 "/>
<polyline fill="none" points="409.482,151.5 -268.483,151.5 -268.483,-10.5 409.482,-10.5 "/>
<polyline fill="none" points="409.482,151.5 -268.483,151.5 -268.483,-10.5 409.482,-10.5 "/>
<polyline fill="none" points="409.482,151.5 -268.483,151.5 -268.483,-10.5 409.482,-10.5 "/>
<path fill="#FFFFFF" d="M71.199,0C31.94,0,0,31.937,0,71.196c0,39.259,31.94,71.201,71.199,71.201
	c39.259,0,71.199-31.942,71.199-71.201C142.397,31.937,110.458,0,71.199,0 M71.199,131.798c-21.054,0-39.626-10.8-50.491-27.139
	c32-22.672,65.092-22.726,101.115-0.204C110.974,120.91,92.339,131.798,71.199,131.798 M57.76,66.385
	c0-7.423,6.016-13.442,13.436-13.442c7.425,0,13.441,6.019,13.441,13.442c0,7.419-6.017,13.436-13.441,13.436
	C63.777,79.82,57.76,73.805,57.76,66.385 M98.103,64.866v-5.904c0-7.287-5.962-13.248-13.246-13.248H57.54
	c-7.286,0-13.247,5.96-13.247,13.248v5.307C33.07,67.249,22.014,72.23,11.141,79.183c-0.345-2.617-0.542-5.278-0.542-7.986
	c0-33.414,27.183-60.599,60.599-60.599c33.415,0,60.598,27.186,60.598,60.599c0,2.711-0.195,5.372-0.54,7.99
	C120.104,72.677,109.045,67.895,98.103,64.866"/>
</svg>
